<mxfile host="app.diagrams.net" modified="2023-06-28T04:37:37.256Z" agent="Mozilla/5.0 (Windows NT 10.0; Win64; x64) AppleWebKit/537.36 (KHTML, like Gecko) Chrome/114.0.0.0 Safari/537.36 Edg/114.0.1823.58" etag="Yj780MtDKC4zrGy0qZS_" version="21.5.0" type="github">
  <diagram name="第 1 页" id="ObHZFaE3lAEAPs-GQ0Be">
    <mxGraphModel dx="1139" dy="616" grid="1" gridSize="10" guides="1" tooltips="1" connect="1" arrows="1" fold="1" page="1" pageScale="1" pageWidth="827" pageHeight="1169" math="0" shadow="0">
      <root>
        <mxCell id="0" />
        <mxCell id="1" parent="0" />
        <mxCell id="mGY0GKHOU-FCAvyXf0Iq-1" value="IO设备的组成" style="text;align=center;fontStyle=1;verticalAlign=middle;spacingLeft=3;spacingRight=3;strokeColor=none;rotatable=0;points=[[0,0.5],[1,0.5]];portConstraint=eastwest;html=1;" vertex="1" parent="1">
          <mxGeometry x="170" y="170" width="80" height="26" as="geometry" />
        </mxCell>
        <mxCell id="mGY0GKHOU-FCAvyXf0Iq-2" value="" style="shape=curlyBracket;whiteSpace=wrap;html=1;rounded=1;labelPosition=left;verticalLabelPosition=middle;align=right;verticalAlign=middle;" vertex="1" parent="1">
          <mxGeometry x="260" y="120" width="20" height="120" as="geometry" />
        </mxCell>
        <mxCell id="mGY0GKHOU-FCAvyXf0Iq-3" value="机械部件:比如键盘鼠标的按键和按钮，用来执行具体的I/O操作&amp;nbsp;" style="text;align=center;fontStyle=1;verticalAlign=middle;spacingLeft=3;spacingRight=3;strokeColor=none;rotatable=0;points=[[0,0.5],[1,0.5]];portConstraint=eastwest;html=1;" vertex="1" parent="1">
          <mxGeometry x="430" y="110" width="80" height="26" as="geometry" />
        </mxCell>
        <mxCell id="mGY0GKHOU-FCAvyXf0Iq-4" value="电子部件:即I/O控制器、设备控制器，是CPU与硬件设备之间的桥梁" style="text;align=center;fontStyle=1;verticalAlign=middle;spacingLeft=3;spacingRight=3;strokeColor=none;rotatable=0;points=[[0,0.5],[1,0.5]];portConstraint=eastwest;html=1;" vertex="1" parent="1">
          <mxGeometry x="440" y="220" width="80" height="26" as="geometry" />
        </mxCell>
      </root>
    </mxGraphModel>
  </diagram>
</mxfile>
